<svg width="1920" height="1080" viewBox="0 0 1920 1080" fill="none" xmlns="http://www.w3.org/2000/svg">
<g clip-path="url(#clip0_125_21707)">
<rect width="1920" height="1080" fill="white"/>
<rect width="960" height="1080" fill="#0F172A"/>
<path fill-rule="evenodd" clip-rule="evenodd" d="M2455.92 532.997C2452.04 235.744 2213.6 -4 1920 -4C1626.4 -4 1387.96 235.744 1384.08 532.997L1384 1108C1712.67 1005.35 1824.13 700.456 1817.35 508.278H1756.41C1727.35 508.278 1715.44 508.384 1709.76 507.767C1704.39 507.192 1698.73 503.657 1696.49 498.079C1695.27 495.077 1693.05 488.391 1698.59 481.003C1701.16 477.575 1707.83 470.4 1803.81 372.926C1899.81 275.432 1908.15 266.042 1912.01 264.02C1913.79 263.083 1916.16 261.954 1920 261.912C1923.84 261.954 1926.21 263.083 1927.99 264.02C1931.82 266.042 1940.19 275.453 2036.19 372.926C2132.19 470.421 2138.84 477.575 2141.42 481.003C2146.95 488.37 2144.73 495.077 2143.51 498.079C2141.27 503.657 2135.59 507.213 2130.24 507.767C2124.56 508.363 2112.65 508.278 2083.59 508.278H2022.65C2015.87 700.456 2127.33 1005.35 2456 1108L2455.92 532.997V532.997Z" fill="#E2E8F0"/>
</g>
<defs>
<clipPath id="clip0_125_21707">
<rect width="1920" height="1080" fill="white"/>
</clipPath>
</defs>
</svg>
