<svg width="16" height="16" viewBox="0 0 16 16" fill="none" xmlns="http://www.w3.org/2000/svg">
<path d="M4.28832 9.39085L3.82421 11.1235L2.12788 11.1593C1.62093 10.2191 1.33337 9.14325 1.33337 8.00002C1.33337 6.89452 1.60223 5.85202 2.07879 4.93408H2.07916L3.58936 5.21096L4.25093 6.7121C4.11246 7.11578 4.03699 7.54911 4.03699 8.00002C4.03705 8.48939 4.12569 8.95827 4.28832 9.39085Z" fill="#FBBB00"/>
<path d="M14.5495 6.75464C14.6261 7.15792 14.666 7.5744 14.666 8.00006C14.666 8.47735 14.6158 8.94292 14.5202 9.39201C14.1957 10.9202 13.3477 12.2546 12.173 13.199L12.1726 13.1986L10.2704 13.1015L10.0012 11.4209C10.7807 10.9638 11.3898 10.2484 11.7107 9.39201H8.14587V6.75464H14.5495Z" fill="#518EF8"/>
<path d="M12.173 13.1986L12.1733 13.1989C11.0309 14.1172 9.57957 14.6667 7.99972 14.6667C5.4609 14.6667 3.25358 13.2476 2.12756 11.1594L4.28801 9.39087C4.851 10.8934 6.30045 11.963 7.99972 11.963C8.73011 11.963 9.41439 11.7656 10.0015 11.4209L12.173 13.1986Z" fill="#28B446"/>
<path d="M12.2547 2.86804L10.095 4.63617C9.48729 4.25633 8.76896 4.0369 7.99937 4.0369C6.26164 4.0369 4.78508 5.15557 4.25029 6.712L2.07849 4.93398H2.07812C3.18766 2.79479 5.42281 1.33325 7.99937 1.33325C9.61695 1.33325 11.1001 1.90945 12.2547 2.86804Z" fill="#F14336"/>
</svg>
