<svg width="220" height="88" viewBox="0 0 220 88" fill="none" xmlns="http://www.w3.org/2000/svg">
<path d="M120.366 75.1593V30.2156H129.731V67.3249H148.719V75.1593H120.366Z" fill="white"/>
<path d="M164.284 30.2156V75.1593H154.92V30.2156H164.284Z" fill="white"/>
<path d="M171.989 30.2156H183.538L195.735 60.4121H196.254L208.451 30.2156H220V75.1593H210.917V45.9064H210.549L199.087 74.9398H192.902L181.44 45.7966H181.072V75.1593H171.989V30.2156Z" fill="white"/>
<path fill-rule="evenodd" clip-rule="evenodd" d="M84.8978 42.4962C84.5906 18.9726 65.7058 0 42.4522 0C19.1986 0 0.313833 18.9726 0.00664198 42.4962L0 88C26.0316 79.8768 34.8588 55.7483 34.3224 40.54H29.4954C27.1939 40.54 26.2508 40.5484 25.8008 40.4995C25.3757 40.454 24.9273 40.1743 24.7497 39.7329C24.6534 39.4953 24.4773 38.9662 24.9157 38.3815C25.12 38.1102 25.648 37.5424 33.2497 29.8287C40.8531 22.1133 41.514 21.3702 41.8196 21.2102C41.9607 21.136 42.1483 21.0467 42.4522 21.0434C42.7561 21.0467 42.9437 21.136 43.0849 21.2102C43.3887 21.3702 44.0513 22.115 51.6547 29.8287C59.2581 37.5441 59.7844 38.1102 59.9887 38.3815C60.4271 38.9645 60.251 39.4953 60.1547 39.7329C59.9771 40.1743 59.5271 40.4557 59.1036 40.4995C58.6536 40.5467 57.7105 40.54 55.409 40.54H50.582C50.0456 55.7483 58.8728 79.8768 84.9044 88L84.8978 42.4962Z" fill="url(#paint0_linear_125_21709)"/>
<defs>
<linearGradient id="paint0_linear_125_21709" x1="42.795" y1="87.6858" x2="42.795" y2="2.00654e-07" gradientUnits="userSpaceOnUse">
<stop stop-color="#0ACF83"/>
<stop offset="0.549172" stop-color="#97F41D"/>
<stop offset="0.965574" stop-color="#BFFF00" stop-opacity="0.97"/>
</linearGradient>
</defs>
</svg>
